<svg version="1.1" id="Layer_1" xmlns="http://www.w3.org/2000/svg" xmlns:xlink="http://www.w3.org/1999/xlink" x="0px" y="0px"
	 width="100%" viewBox="0 0 512 512" enable-background="new 0 0 512 512" xml:space="preserve">
<path fill="#FFFFFF" opacity="1.000000" stroke="none" 
	d="
M291.000000,513.000000 
	C194.381180,513.000000 97.762360,513.000000 1.071769,513.000000 
	C1.071769,342.333344 1.071769,171.666672 1.071769,1.000000 
	C28.089426,1.000000 55.076054,1.000000 82.443321,1.353147 
	C78.322037,4.612252 76.960274,8.880157 76.962639,14.048910 
	C77.012123,122.201218 77.000000,230.353561 77.000000,338.505890 
	C77.000000,340.269836 77.000000,342.033813 77.000000,344.000000 
	C62.775509,344.000000 49.119221,343.689453 35.497215,344.234955 
	C32.386753,344.359528 28.522690,346.770294 26.563709,349.324097 
	C23.982529,352.689117 23.853670,357.125977 26.596159,361.166901 
	C37.733639,377.577271 48.806416,394.031799 59.856815,410.501038 
	C80.245926,440.888489 100.866104,471.127014 120.759979,501.835754 
	C124.960991,508.320496 135.657776,508.460449 139.766037,501.901489 
	C146.862442,490.571960 154.612915,479.652466 162.073822,468.550781 
	C178.534012,444.058350 194.996841,419.567719 211.433945,395.059784 
	C218.977554,383.812164 226.454056,372.519562 233.977859,361.258606 
	C239.648361,352.771515 232.235199,343.327087 223.159485,343.816559 
	C209.919540,344.530609 196.612473,344.000000 183.000000,344.000000 
	C183.000000,341.754639 183.000000,339.958801 183.000000,338.162933 
	C183.000000,229.843964 182.958923,121.524933 183.119324,13.206201 
	C183.127487,7.693498 181.405594,3.886180 177.000000,1.000000 
	C234.354233,1.000000 291.708466,1.000000 349.364105,1.408797 
	C340.005066,1.878396 330.344666,1.952910 320.684113,1.995874 
	C312.207703,2.033572 308.024109,6.114594 308.002655,14.443364 
	C307.988495,19.942904 307.997437,25.442513 308.000580,30.942087 
	C308.005768,40.040234 311.963562,43.998081 321.069489,43.999027 
	C347.400787,44.001766 373.732117,44.000000 400.063416,44.000000 
	C401.644226,44.000000 403.225037,44.000000 405.461884,44.000000 
	C404.172638,46.152729 403.377594,47.682877 402.398743,49.084660 
	C383.915588,75.554115 365.439819,102.028847 346.899902,128.458557 
	C334.838348,145.653015 322.636780,162.749283 310.584747,179.950363 
	C307.013641,185.047180 304.021301,190.361542 304.923950,197.085617 
	C305.363495,200.359695 304.996918,203.741562 305.000580,207.074646 
	C305.011444,216.904831 309.094269,220.996292 318.922668,220.998260 
	C344.587372,221.003403 370.252045,221.000015 395.916748,221.000000 
	C416.415161,221.000000 436.913666,221.031219 457.411987,220.983063 
	C464.604401,220.966171 468.986786,216.523788 468.997894,209.470734 
	C469.007904,203.137909 469.009155,196.805023 468.997620,190.472198 
	C468.984375,183.182968 464.750580,179.012909 457.365112,179.001251 
	C453.032104,178.994400 448.699127,179.000000 444.366119,179.000000 
	C418.421661,179.000000 392.477173,179.000000 365.707062,179.000000 
	C379.008881,160.147202 392.005157,141.918427 404.798553,123.548325 
	C421.949585,98.921097 438.543823,73.893570 456.198975,49.636051 
	C463.410004,39.728359 467.856720,29.853193 466.022766,17.581734 
	C465.852234,16.440643 466.000061,15.251981 466.000031,14.085404 
	C465.999786,5.836247 462.233978,2.041005 453.932312,2.006908 
	C446.099701,1.974737 438.266266,2.051086 430.434723,1.954848 
	C428.952789,1.936638 427.478058,1.333331 426.000000,0.999999 
	C454.979828,1.000000 483.959686,1.000000 512.958435,1.000000 
	C512.958435,171.666672 512.958435,342.333344 512.958435,513.000000 
	C503.257019,513.000000 493.597168,513.000000 483.560303,512.653442 
	C487.168884,510.521027 489.754395,507.462860 488.882690,503.102478 
	C487.760040,497.486908 486.032135,491.956696 484.147156,486.534973 
	C472.156799,452.047333 460.039581,417.603821 447.987579,383.137573 
	C438.632416,356.383698 429.445312,329.569885 419.875549,302.893158 
	C417.647278,296.681702 415.117004,293.674866 407.154663,293.896759 
	C393.670868,294.272614 380.161255,294.273743 366.677704,293.894012 
	C358.991241,293.677521 356.295410,296.850433 354.091858,303.050995 
	C344.385773,330.362701 334.983612,357.782288 325.397827,385.136993 
	C312.422791,422.163513 299.393799,459.171112 286.355377,496.175385 
	C283.887085,503.180542 284.300964,508.400421 291.000000,513.000000 
z"/>
<path fill="#000000" opacity="1.000000" stroke="none" 
	d="
M176.531342,1.000000 
	C181.405594,3.886180 183.127487,7.693498 183.119324,13.206201 
	C182.958923,121.524933 183.000000,229.843964 183.000000,338.162933 
	C183.000000,339.958801 183.000000,341.754639 183.000000,344.000000 
	C196.612473,344.000000 209.919540,344.530609 223.159485,343.816559 
	C232.235199,343.327087 239.648361,352.771515 233.977859,361.258606 
	C226.454056,372.519562 218.977554,383.812164 211.433945,395.059784 
	C194.996841,419.567719 178.534012,444.058350 162.073822,468.550781 
	C154.612915,479.652466 146.862442,490.571960 139.766037,501.901489 
	C135.657776,508.460449 124.960991,508.320496 120.759979,501.835754 
	C100.866104,471.127014 80.245926,440.888489 59.856815,410.501038 
	C48.806416,394.031799 37.733639,377.577271 26.596159,361.166901 
	C23.853670,357.125977 23.982529,352.689117 26.563709,349.324097 
	C28.522690,346.770294 32.386753,344.359528 35.497215,344.234955 
	C49.119221,343.689453 62.775509,344.000000 77.000000,344.000000 
	C77.000000,342.033813 77.000000,340.269836 77.000000,338.505890 
	C77.000000,230.353561 77.012123,122.201218 76.962639,14.048910 
	C76.960274,8.880157 78.322037,4.612252 82.911980,1.353147 
	C114.020897,1.000000 145.041794,1.000000 176.531342,1.000000 
z"/>
<path fill="#000000" opacity="1.000000" stroke="none" 
	d="
M291.468658,513.000000 
	C284.300964,508.400421 283.887085,503.180542 286.355377,496.175385 
	C299.393799,459.171112 312.422791,422.163513 325.397827,385.136993 
	C334.983612,357.782288 344.385773,330.362701 354.091858,303.050995 
	C356.295410,296.850433 358.991241,293.677521 366.677704,293.894012 
	C380.161255,294.273743 393.670868,294.272614 407.154663,293.896759 
	C415.117004,293.674866 417.647278,296.681702 419.875549,302.893158 
	C429.445312,329.569885 438.632416,356.383698 447.987579,383.137573 
	C460.039581,417.603821 472.156799,452.047333 484.147156,486.534973 
	C486.032135,491.956696 487.760040,497.486908 488.882690,503.102478 
	C489.754395,507.462860 487.168884,510.521027 483.091614,512.653442 
	C470.312439,513.000000 457.624878,513.000000 444.380219,512.656677 
	C441.795258,509.971741 438.828979,507.950195 437.902313,505.233032 
	C433.931610,493.589996 430.426941,481.780945 427.020081,469.955261 
	C424.744995,462.058105 424.946716,462.000000 416.577057,462.000000 
	C413.584930,462.000000 410.592834,462.000000 407.600708,462.000000 
	C389.648010,462.000000 371.694855,461.943542 353.743530,462.098083 
	C352.162201,462.111725 349.535919,463.174377 349.180939,464.308655 
	C345.551025,475.908936 342.505737,487.693115 338.827606,499.276855 
	C337.234955,504.292664 336.209686,509.922638 331.000000,513.000000 
	C317.979095,513.000000 304.958221,513.000000 291.468658,513.000000 
M395.497620,420.000000 
	C400.938843,420.000000 406.380035,420.000000 412.258240,420.000000 
	C404.077271,393.517975 396.062195,367.572906 388.047089,341.627869 
	C387.389038,341.710632 386.730957,341.793396 386.072906,341.876190 
	C378.301910,367.735443 370.530914,393.594696 362.595825,420.000000 
	C373.600006,420.000000 384.049164,420.000000 395.497620,420.000000 
z"/>
<path fill="#000000" opacity="1.000000" stroke="none" 
	d="
M425.539368,0.999999 
	C427.478058,1.333331 428.952789,1.936638 430.434723,1.954848 
	C438.266266,2.051086 446.099701,1.974737 453.932312,2.006908 
	C462.233978,2.041005 465.999786,5.836247 466.000031,14.085404 
	C466.000061,15.251981 465.852234,16.440643 466.022766,17.581734 
	C467.856720,29.853193 463.410004,39.728359 456.198975,49.636051 
	C438.543823,73.893570 421.949585,98.921097 404.798553,123.548325 
	C392.005157,141.918427 379.008881,160.147202 365.707062,179.000000 
	C392.477173,179.000000 418.421661,179.000000 444.366119,179.000000 
	C448.699127,179.000000 453.032104,178.994400 457.365112,179.001251 
	C464.750580,179.012909 468.984375,183.182968 468.997620,190.472198 
	C469.009155,196.805023 469.007904,203.137909 468.997894,209.470734 
	C468.986786,216.523788 464.604401,220.966171 457.411987,220.983063 
	C436.913666,221.031219 416.415161,221.000000 395.916748,221.000000 
	C370.252045,221.000015 344.587372,221.003403 318.922668,220.998260 
	C309.094269,220.996292 305.011444,216.904831 305.000580,207.074646 
	C304.996918,203.741562 305.363495,200.359695 304.923950,197.085617 
	C304.021301,190.361542 307.013641,185.047180 310.584747,179.950363 
	C322.636780,162.749283 334.838348,145.653015 346.899902,128.458557 
	C365.439819,102.028847 383.915588,75.554115 402.398743,49.084660 
	C403.377594,47.682877 404.172638,46.152729 405.461884,44.000000 
	C403.225037,44.000000 401.644226,44.000000 400.063416,44.000000 
	C373.732117,44.000000 347.400787,44.001766 321.069489,43.999027 
	C311.963562,43.998081 308.005768,40.040234 308.000580,30.942087 
	C307.997437,25.442513 307.988495,19.942904 308.002655,14.443364 
	C308.024109,6.114594 312.207703,2.033572 320.684113,1.995874 
	C330.344666,1.952910 340.005066,1.878396 349.832764,1.408797 
	C359.020905,1.000000 368.041779,1.000000 377.698578,1.408797 
	C389.583893,1.877364 400.833313,1.953570 412.082733,1.953914 
	C412.721832,1.953934 413.360901,1.332310 414.000000,1.000005 
	C417.692902,1.000000 421.385834,1.000000 425.539368,0.999999 
z"/>
<path fill="#FFFFFF" opacity="1.000000" stroke="none" 
	d="
M331.468658,513.000000 
	C336.209686,509.922638 337.234955,504.292664 338.827606,499.276855 
	C342.505737,487.693115 345.551025,475.908936 349.180939,464.308655 
	C349.535919,463.174377 352.162201,462.111725 353.743530,462.098083 
	C371.694855,461.943542 389.648010,462.000000 407.600708,462.000000 
	C410.592834,462.000000 413.584930,462.000000 416.577057,462.000000 
	C424.946716,462.000000 424.744995,462.058105 427.020081,469.955261 
	C430.426941,481.780945 433.931610,493.589996 437.902313,505.233032 
	C438.828979,507.950195 441.795258,509.971741 443.911560,512.656677 
	C406.645782,513.000000 369.291534,513.000000 331.468658,513.000000 
z"/>
<path fill="#FFFFFF" opacity="1.000000" stroke="none" 
	d="
M413.531342,1.000005 
	C413.360901,1.332310 412.721832,1.953934 412.082733,1.953914 
	C400.833313,1.953570 389.583893,1.877364 378.167236,1.408797 
	C389.687561,1.000000 401.375122,1.000000 413.531342,1.000005 
z"/>
<path fill="#FFFFFF" opacity="1.000000" stroke="none" 
	d="
M394.997955,420.000000 
	C384.049164,420.000000 373.600006,420.000000 362.595825,420.000000 
	C370.530914,393.594696 378.301910,367.735443 386.072906,341.876190 
	C386.730957,341.793396 387.389038,341.710632 388.047089,341.627869 
	C396.062195,367.572906 404.077271,393.517975 412.258240,420.000000 
	C406.380035,420.000000 400.938843,420.000000 394.997955,420.000000 
z"/>
</svg>